M48
; DRILL file {KiCad 9.0.2+dfsg-1} date 2026-04-18T13:11:03-0500
; FORMAT={-:-/ absolute / metric / decimal}
; #@! TF.CreationDate,2026-04-18T13:11:03-05:00
; #@! TF.GenerationSoftware,Kicad,Pcbnew,9.0.2+dfsg-1
; #@! TF.FileFunction,Plated,1,2,PTH
FMAT,2
METRIC
; #@! TA.AperFunction,Plated,PTH,ComponentDrill
T1C0.600
; #@! TA.AperFunction,Plated,PTH,ComponentDrill
T2C0.800
; #@! TA.AperFunction,Plated,PTH,ComponentDrill
T3C0.900
; #@! TA.AperFunction,Plated,PTH,ComponentDrill
T4C1.000
; #@! TA.AperFunction,Plated,PTH,ComponentDrill
T5C2.700
%
G90
G05
T2
X154.67Y-113.5
X154.67Y-117.55
X164.83Y-113.5
X164.83Y-117.55
T3
X155.145Y-107.35
X157.685Y-107.35
X161.985Y-107.215
X164.525Y-107.215
T4
X98.11Y-68.85
X98.11Y-71.39
X98.11Y-73.93
X98.11Y-76.47
X98.11Y-79.01
X98.11Y-81.55
X98.11Y-84.09
X98.11Y-86.63
X98.11Y-89.17
X98.11Y-91.71
X98.11Y-94.25
X98.11Y-96.79
X98.11Y-99.33
X98.135Y-105.76
X98.135Y-108.3
X98.135Y-110.84
X98.135Y-113.38
X98.135Y-115.92
X98.135Y-118.46
X123.585Y-66.29
X126.125Y-66.29
X127.0Y-76.3
X127.0Y-78.84
X127.0Y-81.38
X127.0Y-83.92
X127.0Y-86.46
X127.0Y-89.0
X127.0Y-91.54
X127.0Y-94.08
X127.0Y-96.62
X127.0Y-99.16
X127.0Y-101.7
X127.0Y-104.24
X127.0Y-106.78
X127.0Y-109.32
X127.0Y-111.86
X128.665Y-66.29
X133.285Y-66.29
X135.825Y-66.29
X138.365Y-66.29
X142.24Y-76.3
X142.24Y-78.84
X142.24Y-81.38
X142.24Y-83.92
X142.24Y-86.46
X142.24Y-89.0
X142.24Y-91.54
X142.24Y-94.08
X142.24Y-96.62
X142.24Y-99.16
X142.24Y-101.7
X142.24Y-104.24
X142.24Y-106.78
X142.24Y-109.32
X142.24Y-111.86
X142.985Y-66.29
X145.525Y-66.29
X148.065Y-66.29
X152.685Y-66.29
X155.11Y-79.85
X155.11Y-82.39
X155.11Y-84.93
X155.11Y-87.47
X155.11Y-90.01
X155.11Y-92.55
X155.11Y-95.09
X155.11Y-97.63
X155.225Y-66.29
X157.765Y-66.29
X184.11Y-81.11
X184.11Y-83.65
X184.11Y-86.19
X184.11Y-88.73
X184.11Y-91.27
X184.11Y-93.81
X184.11Y-96.35
X184.135Y-110.34
X184.135Y-112.88
T5
X101.01Y-139.35
X108.21Y-139.35
X121.75Y-139.0
X128.95Y-139.0
X139.3Y-139.0
X146.5Y-139.0
X156.85Y-139.0
X164.05Y-139.0
X174.4Y-139.0
X181.6Y-139.0
T1
G00X97.86Y-132.8
M15
G01X97.86Y-133.9
M16
G05
G00X111.36Y-132.8
M15
G01X111.36Y-133.9
M16
G05
G00X118.6Y-132.45
M15
G01X118.6Y-133.55
M16
G05
G00X132.1Y-132.45
M15
G01X132.1Y-133.55
M16
G05
G00X136.15Y-132.45
M15
G01X136.15Y-133.55
M16
G05
G00X149.65Y-132.45
M15
G01X149.65Y-133.55
M16
G05
G00X153.7Y-132.45
M15
G01X153.7Y-133.55
M16
G05
G00X167.2Y-132.45
M15
G01X167.2Y-133.55
M16
G05
G00X171.25Y-132.45
M15
G01X171.25Y-133.55
M16
G05
G00X184.75Y-132.45
M15
G01X184.75Y-133.55
M16
G05
M30
