%TF.GenerationSoftware,KiCad,Pcbnew,9.0.2+dfsg-1*%
%TF.CreationDate,2026-04-18T13:11:00-05:00*%
%TF.ProjectId,PCB,5043422e-6b69-4636-9164-5f7063625858,rev?*%
%TF.SameCoordinates,Original*%
%TF.FileFunction,Copper,L2,Bot*%
%TF.FilePolarity,Positive*%
%FSLAX46Y46*%
G04 Gerber Fmt 4.6, Leading zero omitted, Abs format (unit mm)*
G04 Created by KiCad (PCBNEW 9.0.2+dfsg-1) date 2026-04-18 13:11:00*
%MOMM*%
%LPD*%
G01*
G04 APERTURE LIST*
G04 Aperture macros list*
%AMRoundRect*
0 Rectangle with rounded corners*
0 $1 Rounding radius*
0 $2 $3 $4 $5 $6 $7 $8 $9 X,Y pos of 4 corners*
0 Add a 4 corners polygon primitive as box body*
4,1,4,$2,$3,$4,$5,$6,$7,$8,$9,$2,$3,0*
0 Add four circle primitives for the rounded corners*
1,1,$1+$1,$2,$3*
1,1,$1+$1,$4,$5*
1,1,$1+$1,$6,$7*
1,1,$1+$1,$8,$9*
0 Add four rect primitives between the rounded corners*
20,1,$1+$1,$2,$3,$4,$5,0*
20,1,$1+$1,$4,$5,$6,$7,0*
20,1,$1+$1,$6,$7,$8,$9,0*
20,1,$1+$1,$8,$9,$2,$3,0*%
G04 Aperture macros list end*
%TA.AperFunction,ComponentPad*%
%ADD10C,1.600000*%
%TD*%
%TA.AperFunction,ComponentPad*%
%ADD11R,0.900000X2.000000*%
%TD*%
%TA.AperFunction,ComponentPad*%
%ADD12RoundRect,1.025000X-1.025000X-1.025000X1.025000X-1.025000X1.025000X1.025000X-1.025000X1.025000X0*%
%TD*%
%TA.AperFunction,ComponentPad*%
%ADD13C,4.100000*%
%TD*%
%TA.AperFunction,ComponentPad*%
%ADD14R,1.800000X1.800000*%
%TD*%
%TA.AperFunction,ComponentPad*%
%ADD15C,1.800000*%
%TD*%
%TA.AperFunction,ComponentPad*%
%ADD16R,1.700000X1.700000*%
%TD*%
%TA.AperFunction,ComponentPad*%
%ADD17C,1.700000*%
%TD*%
%TA.AperFunction,ComponentPad*%
%ADD18R,1.600000X1.600000*%
%TD*%
%TA.AperFunction,ComponentPad*%
%ADD19O,1.600000X1.600000*%
%TD*%
%TA.AperFunction,Conductor*%
%ADD20C,0.250000*%
%TD*%
%TA.AperFunction,Conductor*%
%ADD21C,4.000000*%
%TD*%
%TA.AperFunction,Conductor*%
%ADD22C,0.500000*%
%TD*%
G04 APERTURE END LIST*
D10*
%TO.P,R220-1,1*%
%TO.N,GND*%
X154670000Y-113500000D03*
%TO.P,R220-1,2*%
%TO.N,Net-(On/Off1-K)*%
X164830000Y-113500000D03*
%TD*%
D11*
%TO.P,Battery1,*%
%TO.N,*%
X97860000Y-133350000D03*
X111360000Y-133350000D03*
D12*
%TO.P,Battery1,1,Pin_1*%
%TO.N,+BATT*%
X101010000Y-139350000D03*
D13*
%TO.P,Battery1,2,Pin_2*%
%TO.N,GND*%
X108210000Y-139350000D03*
%TD*%
D14*
%TO.P,On/Off1,1,K*%
%TO.N,Net-(On/Off1-K)*%
X155145000Y-107350000D03*
D15*
%TO.P,On/Off1,2,A*%
%TO.N,5V*%
X157685000Y-107350000D03*
%TD*%
D11*
%TO.P,M1,*%
%TO.N,*%
X118600000Y-133000000D03*
X132100000Y-133000000D03*
D12*
%TO.P,M1,1,Pin_1*%
%TO.N,+BATT*%
X121750000Y-139000000D03*
D13*
%TO.P,M1,2,Pin_2*%
%TO.N,GND*%
X128950000Y-139000000D03*
%TD*%
D11*
%TO.P,M2,*%
%TO.N,*%
X136150000Y-133000000D03*
X149650000Y-133000000D03*
D12*
%TO.P,M2,1,Pin_1*%
%TO.N,+BATT*%
X139300000Y-139000000D03*
D13*
%TO.P,M2,2,Pin_2*%
%TO.N,GND*%
X146500000Y-139000000D03*
%TD*%
D11*
%TO.P,M4,*%
%TO.N,*%
X171250000Y-133000000D03*
X184750000Y-133000000D03*
D12*
%TO.P,M4,1,Pin_1*%
%TO.N,+BATT*%
X174400000Y-139000000D03*
D13*
%TO.P,M4,2,Pin_2*%
%TO.N,GND*%
X181600000Y-139000000D03*
%TD*%
D16*
%TO.P,InputPower1,1,Pin_1*%
%TO.N,GND*%
X184135000Y-110340000D03*
D17*
%TO.P,InputPower1,2,Pin_2*%
%TO.N,5V*%
X184135000Y-112880000D03*
%TD*%
D10*
%TO.P,R220-2,1*%
%TO.N,GND*%
X154670000Y-117550000D03*
%TO.P,R220-2,2*%
%TO.N,Net-(LED_Builtin1-K)*%
X164830000Y-117550000D03*
%TD*%
D16*
%TO.P,ESC1,1,Pin_1*%
%TO.N,GND*%
X123585000Y-66290000D03*
D17*
%TO.P,ESC1,2,Pin_2*%
%TO.N,5V*%
X126125000Y-66290000D03*
%TO.P,ESC1,3,Pin_3*%
%TO.N,Net-(A1-D4)*%
X128665000Y-66290000D03*
%TD*%
D16*
%TO.P,ESC4,1,Pin_1*%
%TO.N,GND*%
X152685000Y-66290000D03*
D17*
%TO.P,ESC4,2,Pin_2*%
%TO.N,5V*%
X155225000Y-66290000D03*
%TO.P,ESC4,3,Pin_3*%
%TO.N,Net-(A1-D7)*%
X157765000Y-66290000D03*
%TD*%
D16*
%TO.P,AnalogPins1,1,Pin_1*%
%TO.N,Net-(A1-A0)*%
X184110000Y-81110000D03*
D17*
%TO.P,AnalogPins1,2,Pin_2*%
%TO.N,Net-(A1-A1)*%
X184110000Y-83650000D03*
%TO.P,AnalogPins1,3,Pin_3*%
%TO.N,Net-(A1-A2)*%
X184110000Y-86190000D03*
%TO.P,AnalogPins1,4,Pin_4*%
%TO.N,Net-(A1-A3)*%
X184110000Y-88730000D03*
%TO.P,AnalogPins1,5,Pin_5*%
%TO.N,Net-(A1-A4)*%
X184110000Y-91270000D03*
%TO.P,AnalogPins1,6,Pin_6*%
%TO.N,Net-(A1-A5)*%
X184110000Y-93810000D03*
%TO.P,AnalogPins1,7,Pin_7*%
%TO.N,Net-(A1-A6)*%
X184110000Y-96350000D03*
%TD*%
D16*
%TO.P,DigitalPins1,1,Pin_1*%
%TO.N,Net-(A1-D0{slash}RX)*%
X98110000Y-68850000D03*
D17*
%TO.P,DigitalPins1,2,Pin_2*%
%TO.N,Net-(A1-D1{slash}TX)*%
X98110000Y-71390000D03*
%TO.P,DigitalPins1,3,Pin_3*%
%TO.N,Net-(A1-D2)*%
X98110000Y-73930000D03*
%TO.P,DigitalPins1,4,Pin_4*%
%TO.N,Net-(A1-D3)*%
X98110000Y-76470000D03*
%TO.P,DigitalPins1,5,Pin_5*%
%TO.N,Net-(A1-D4)*%
X98110000Y-79010000D03*
%TO.P,DigitalPins1,6,Pin_6*%
%TO.N,Net-(A1-D5)*%
X98110000Y-81550000D03*
%TO.P,DigitalPins1,7,Pin_7*%
%TO.N,Net-(A1-D6)*%
X98110000Y-84090000D03*
%TO.P,DigitalPins1,8,Pin_8*%
%TO.N,Net-(A1-D7)*%
X98110000Y-86630000D03*
%TO.P,DigitalPins1,9,Pin_9*%
%TO.N,Net-(A1-D8)*%
X98110000Y-89170000D03*
%TO.P,DigitalPins1,10,Pin_10*%
%TO.N,Net-(A1-D9)*%
X98110000Y-91710000D03*
%TO.P,DigitalPins1,11,Pin_11*%
%TO.N,Net-(A1-D10)*%
X98110000Y-94250000D03*
%TO.P,DigitalPins1,12,Pin_12*%
%TO.N,Net-(A1-D11)*%
X98110000Y-96790000D03*
%TO.P,DigitalPins1,13,Pin_13*%
%TO.N,Net-(A1-D12)*%
X98110000Y-99330000D03*
%TD*%
D16*
%TO.P,GY91,1,Pin_1*%
%TO.N,5V*%
X155110000Y-79850000D03*
D17*
%TO.P,GY91,2,Pin_2*%
%TO.N,unconnected-(GY91-Pin_2-Pad2)*%
X155110000Y-82390000D03*
%TO.P,GY91,3,Pin_3*%
%TO.N,GND*%
X155110000Y-84930000D03*
%TO.P,GY91,4,Pin_4*%
%TO.N,Net-(A1-A5)*%
X155110000Y-87470000D03*
%TO.P,GY91,5,Pin_5*%
%TO.N,Net-(A1-A4)*%
X155110000Y-90010000D03*
%TO.P,GY91,6,Pin_6*%
%TO.N,unconnected-(GY91-Pin_6-Pad6)*%
X155110000Y-92550000D03*
%TO.P,GY91,7,Pin_7*%
%TO.N,unconnected-(GY91-Pin_7-Pad7)*%
X155110000Y-95090000D03*
%TO.P,GY91,8,Pin_8*%
%TO.N,unconnected-(GY91-Pin_8-Pad8)*%
X155110000Y-97630000D03*
%TD*%
D16*
%TO.P,Power1,1,Pin_1*%
%TO.N,5V*%
X98135000Y-105760000D03*
D17*
%TO.P,Power1,2,Pin_2*%
%TO.N,GND*%
X98135000Y-108300000D03*
%TO.P,Power1,3,Pin_3*%
%TO.N,5V*%
X98135000Y-110840000D03*
%TO.P,Power1,4,Pin_4*%
%TO.N,GND*%
X98135000Y-113380000D03*
%TO.P,Power1,5,Pin_5*%
%TO.N,5V*%
X98135000Y-115920000D03*
%TO.P,Power1,6,Pin_6*%
%TO.N,GND*%
X98135000Y-118460000D03*
%TD*%
D11*
%TO.P,M3,*%
%TO.N,*%
X153700000Y-133000000D03*
X167200000Y-133000000D03*
D12*
%TO.P,M3,1,Pin_1*%
%TO.N,+BATT*%
X156850000Y-139000000D03*
D13*
%TO.P,M3,2,Pin_2*%
%TO.N,GND*%
X164050000Y-139000000D03*
%TD*%
D14*
%TO.P,LED_Builtin1,1,K*%
%TO.N,Net-(LED_Builtin1-K)*%
X161985000Y-107215000D03*
D15*
%TO.P,LED_Builtin1,2,A*%
%TO.N,5V*%
X164525000Y-107215000D03*
%TD*%
D18*
%TO.P,A1,1,D1/TX*%
%TO.N,Net-(A1-D1{slash}TX)*%
X127000000Y-76300000D03*
D19*
%TO.P,A1,2,D0/RX*%
%TO.N,Net-(A1-D0{slash}RX)*%
X127000000Y-78840000D03*
%TO.P,A1,3,~{RESET}*%
%TO.N,unconnected-(A1-~{RESET}-Pad3)*%
X127000000Y-81380000D03*
%TO.P,A1,4,GND*%
%TO.N,unconnected-(A1-GND-Pad4)*%
X127000000Y-83920000D03*
%TO.P,A1,5,D2*%
%TO.N,Net-(A1-D2)*%
X127000000Y-86460000D03*
%TO.P,A1,6,D3*%
%TO.N,Net-(A1-D3)*%
X127000000Y-89000000D03*
%TO.P,A1,7,D4*%
%TO.N,Net-(A1-D4)*%
X127000000Y-91540000D03*
%TO.P,A1,8,D5*%
%TO.N,Net-(A1-D5)*%
X127000000Y-94080000D03*
%TO.P,A1,9,D6*%
%TO.N,Net-(A1-D6)*%
X127000000Y-96620000D03*
%TO.P,A1,10,D7*%
%TO.N,Net-(A1-D7)*%
X127000000Y-99160000D03*
%TO.P,A1,11,D8*%
%TO.N,Net-(A1-D8)*%
X127000000Y-101700000D03*
%TO.P,A1,12,D9*%
%TO.N,Net-(A1-D9)*%
X127000000Y-104240000D03*
%TO.P,A1,13,D10*%
%TO.N,Net-(A1-D10)*%
X127000000Y-106780000D03*
%TO.P,A1,14,D11*%
%TO.N,Net-(A1-D11)*%
X127000000Y-109320000D03*
%TO.P,A1,15,D12*%
%TO.N,Net-(A1-D12)*%
X127000000Y-111860000D03*
%TO.P,A1,16,D13*%
%TO.N,unconnected-(A1-D13-Pad16)*%
X142240000Y-111860000D03*
%TO.P,A1,17,3V3*%
%TO.N,unconnected-(A1-3V3-Pad17)*%
X142240000Y-109320000D03*
%TO.P,A1,18,AREF*%
%TO.N,unconnected-(A1-AREF-Pad18)*%
X142240000Y-106780000D03*
%TO.P,A1,19,A0*%
%TO.N,Net-(A1-A0)*%
X142240000Y-104240000D03*
%TO.P,A1,20,A1*%
%TO.N,Net-(A1-A1)*%
X142240000Y-101700000D03*
%TO.P,A1,21,A2*%
%TO.N,Net-(A1-A2)*%
X142240000Y-99160000D03*
%TO.P,A1,22,A3*%
%TO.N,Net-(A1-A3)*%
X142240000Y-96620000D03*
%TO.P,A1,23,A4*%
%TO.N,Net-(A1-A4)*%
X142240000Y-94080000D03*
%TO.P,A1,24,A5*%
%TO.N,Net-(A1-A5)*%
X142240000Y-91540000D03*
%TO.P,A1,25,A6*%
%TO.N,Net-(A1-A6)*%
X142240000Y-89000000D03*
%TO.P,A1,26,A7*%
%TO.N,unconnected-(A1-A7-Pad26)*%
X142240000Y-86460000D03*
%TO.P,A1,27,+5V*%
%TO.N,5V*%
X142240000Y-83920000D03*
%TO.P,A1,28,~{RESET}*%
%TO.N,unconnected-(A1-~{RESET}-Pad28)*%
X142240000Y-81380000D03*
%TO.P,A1,29,GND*%
%TO.N,unconnected-(A1-GND-Pad29)*%
X142240000Y-78840000D03*
%TO.P,A1,30,VIN*%
%TO.N,unconnected-(A1-VIN-Pad30)*%
X142240000Y-76300000D03*
%TD*%
D16*
%TO.P,ESC3,1,Pin_1*%
%TO.N,GND*%
X142985000Y-66290000D03*
D17*
%TO.P,ESC3,2,Pin_2*%
%TO.N,5V*%
X145525000Y-66290000D03*
%TO.P,ESC3,3,Pin_3*%
%TO.N,Net-(A1-D6)*%
X148065000Y-66290000D03*
%TD*%
D16*
%TO.P,ESC2,1,Pin_1*%
%TO.N,GND*%
X133285000Y-66290000D03*
D17*
%TO.P,ESC2,2,Pin_2*%
%TO.N,5V*%
X135825000Y-66290000D03*
%TO.P,ESC2,3,Pin_3*%
%TO.N,Net-(A1-D5)*%
X138365000Y-66290000D03*
%TD*%
D20*
%TO.N,Net-(A1-A5)*%
X182934000Y-79934000D02*
X181500000Y-81368000D01*
X185286000Y-79934000D02*
X182934000Y-79934000D01*
X185500000Y-80148000D02*
X185286000Y-79934000D01*
X185500000Y-82000000D02*
X185500000Y-80148000D01*
X159500000Y-94000000D02*
X159500000Y-91860000D01*
X181500000Y-82000000D02*
X169500000Y-94000000D01*
X184110000Y-93810000D02*
X187000000Y-90920000D01*
X181500000Y-81368000D02*
X181500000Y-82000000D01*
X187000000Y-83500000D02*
X185500000Y-82000000D01*
X159500000Y-91860000D02*
X155110000Y-87470000D01*
X169500000Y-94000000D02*
X159500000Y-94000000D01*
X187000000Y-90920000D02*
X187000000Y-83500000D01*
%TO.N,Net-(A1-A2)*%
X184110000Y-86190000D02*
X171140000Y-99160000D01*
X171140000Y-99160000D02*
X142240000Y-99160000D01*
%TO.N,Net-(A1-A6)*%
X186960000Y-93500000D02*
X187000000Y-93500000D01*
X184110000Y-96350000D02*
X186960000Y-93500000D01*
X187000000Y-93500000D02*
X187484000Y-93016000D01*
X152740000Y-78500000D02*
X142240000Y-89000000D01*
X184968000Y-78500000D02*
X152740000Y-78500000D01*
X187484000Y-81016000D02*
X184968000Y-78500000D01*
X187484000Y-93016000D02*
X187484000Y-81016000D01*
%TO.N,Net-(A1-A3)*%
X185286000Y-87554000D02*
X185286000Y-85286000D01*
X165954000Y-96454000D02*
X142406000Y-96454000D01*
X183000000Y-85000000D02*
X170500000Y-97500000D01*
X184110000Y-88730000D02*
X185286000Y-87554000D01*
X167000000Y-97500000D02*
X165954000Y-96454000D01*
X142406000Y-96454000D02*
X142240000Y-96620000D01*
X170500000Y-97500000D02*
X167000000Y-97500000D01*
X185000000Y-85000000D02*
X183000000Y-85000000D01*
X185286000Y-85286000D02*
X185000000Y-85000000D01*
%TO.N,Net-(A1-A4)*%
X171000000Y-95096884D02*
X171000000Y-95500000D01*
X186000000Y-89380000D02*
X186000000Y-83876884D01*
X184110000Y-91270000D02*
X186000000Y-89380000D01*
X186000000Y-83876884D02*
X184597116Y-82474000D01*
X157500000Y-92400000D02*
X155110000Y-90010000D01*
X171000000Y-95500000D02*
X158000000Y-95500000D01*
X183622884Y-82474000D02*
X171000000Y-95096884D01*
X158000000Y-95500000D02*
X157500000Y-96000000D01*
X184597116Y-82474000D02*
X183622884Y-82474000D01*
X157500000Y-96000000D02*
X157500000Y-92400000D01*
D21*
%TO.N,GND*%
X123500000Y-124000000D02*
X128950000Y-129450000D01*
X108210000Y-129290000D02*
X113500000Y-124000000D01*
D22*
X141721818Y-95369000D02*
X144671000Y-95369000D01*
D21*
X164050000Y-130050000D02*
X164050000Y-139000000D01*
D22*
X154670000Y-112322818D02*
X142758182Y-100411000D01*
X144775000Y-64500000D02*
X150895000Y-64500000D01*
D21*
X146500000Y-130298000D02*
X151298000Y-125500000D01*
X181600000Y-126600000D02*
X181600000Y-139000000D01*
D22*
X96834000Y-112079000D02*
X96834000Y-109601000D01*
D21*
X146500000Y-128500000D02*
X146500000Y-139000000D01*
D22*
X108210000Y-139350000D02*
X108210000Y-128535000D01*
X154670000Y-120330000D02*
X154670000Y-117550000D01*
X141195000Y-64500000D02*
X142985000Y-66290000D01*
X123585000Y-66290000D02*
X124886000Y-64989000D01*
D21*
X128950000Y-139000000D02*
X128950000Y-130298000D01*
D22*
X140989000Y-96101818D02*
X141721818Y-95369000D01*
D21*
X128950000Y-129450000D02*
X128950000Y-139000000D01*
D22*
X131984000Y-64989000D02*
X133285000Y-66290000D01*
X142758182Y-100411000D02*
X141721818Y-100411000D01*
X98135000Y-118460000D02*
X96834000Y-117159000D01*
X144671000Y-95369000D02*
X149789000Y-90251000D01*
X96834000Y-117159000D02*
X96834000Y-114681000D01*
X152685000Y-66290000D02*
X152685000Y-75282182D01*
D21*
X159500000Y-125500000D02*
X164050000Y-130050000D01*
X164050000Y-139000000D02*
X164050000Y-130450000D01*
D22*
X140989000Y-89518182D02*
X141721818Y-90251000D01*
D21*
X141500000Y-123500000D02*
X146500000Y-128500000D01*
D22*
X98135000Y-113380000D02*
X96834000Y-112079000D01*
X96834000Y-109601000D02*
X98135000Y-108300000D01*
X179000000Y-124000000D02*
X179000000Y-115475000D01*
X149789000Y-90251000D02*
X155110000Y-84930000D01*
X151298000Y-123702000D02*
X154670000Y-120330000D01*
X141721818Y-85209000D02*
X140989000Y-85941818D01*
D21*
X108210000Y-139350000D02*
X108210000Y-129290000D01*
X113500000Y-124000000D02*
X123500000Y-124000000D01*
D22*
X140989000Y-85941818D02*
X140989000Y-89518182D01*
X154670000Y-117550000D02*
X154670000Y-113500000D01*
X151298000Y-125500000D02*
X151298000Y-123702000D01*
X124886000Y-64989000D02*
X131984000Y-64989000D01*
X141721818Y-90251000D02*
X149789000Y-90251000D01*
D21*
X178500000Y-124500000D02*
X179000000Y-124000000D01*
D22*
X142758182Y-85209000D02*
X141721818Y-85209000D01*
D21*
X135748000Y-123500000D02*
X141500000Y-123500000D01*
X151298000Y-125500000D02*
X159500000Y-125500000D01*
D22*
X142985000Y-66290000D02*
X144775000Y-64500000D01*
D21*
X179000000Y-124000000D02*
X181600000Y-126600000D01*
D22*
X140989000Y-99678182D02*
X140989000Y-96101818D01*
X154670000Y-113500000D02*
X154670000Y-112322818D01*
X150895000Y-64500000D02*
X152685000Y-66290000D01*
X96834000Y-114681000D02*
X98135000Y-113380000D01*
X133285000Y-66290000D02*
X135075000Y-64500000D01*
X108210000Y-128535000D02*
X98135000Y-118460000D01*
X135075000Y-64500000D02*
X141195000Y-64500000D01*
D21*
X164050000Y-130450000D02*
X170000000Y-124500000D01*
D22*
X152685000Y-75282182D02*
X142758182Y-85209000D01*
D21*
X146500000Y-139000000D02*
X146500000Y-130298000D01*
X170000000Y-124500000D02*
X178500000Y-124500000D01*
D22*
X141721818Y-100411000D02*
X140989000Y-99678182D01*
X179000000Y-115475000D02*
X184135000Y-110340000D01*
D21*
X128950000Y-130298000D02*
X135748000Y-123500000D01*
D20*
%TO.N,5V*%
X143500000Y-70000000D02*
X143500000Y-68315000D01*
X99286000Y-104609000D02*
X99286000Y-93129000D01*
X143000000Y-70500000D02*
X141114000Y-72386000D01*
X129335000Y-69500000D02*
X134500000Y-69500000D01*
X141114000Y-72386000D02*
X141114000Y-82794000D01*
X99286000Y-93129000D02*
X126125000Y-66290000D01*
X135825000Y-66290000D02*
X140035000Y-70500000D01*
X140035000Y-70500000D02*
X143000000Y-70500000D01*
X143500000Y-68315000D02*
X145525000Y-66290000D01*
X126125000Y-66290000D02*
X129335000Y-69500000D01*
X141114000Y-82794000D02*
X142240000Y-83920000D01*
X134500000Y-69500000D02*
X134500000Y-67615000D01*
X98135000Y-105760000D02*
X99286000Y-104609000D01*
X143000000Y-70500000D02*
X143500000Y-70000000D01*
X134500000Y-67615000D02*
X135825000Y-66290000D01*
D22*
%TO.N,Net-(LED_Builtin1-K)*%
X166081000Y-111311000D02*
X161985000Y-107215000D01*
X164830000Y-117550000D02*
X166081000Y-116299000D01*
X166081000Y-116299000D02*
X166081000Y-111311000D01*
%TO.N,Net-(On/Off1-K)*%
X164830000Y-113500000D02*
X161295000Y-113500000D01*
X161295000Y-113500000D02*
X155145000Y-107350000D01*
%TD*%
M02*
